<?xml version="1.0" standalone="no"?>
<!DOCTYPE svg PUBLIC "-//W3C//DTD SVG 20010904//EN"
 "http://www.w3.org/TR/2001/REC-SVG-20010904/DTD/svg10.dtd">
<svg version="1.0" xmlns="http://www.w3.org/2000/svg"
 width="1024.000000pt" height="1024.000000pt" viewBox="0 0 1024.000000 1024.000000"
 preserveAspectRatio="xMidYMid meet">

<g transform="translate(0.000000,1024.000000) scale(0.100000,-0.100000)"
fill="#000000" stroke="none">
<path d="M6250 8561 c-24 -5 -2 -7 65 -7 94 1 105 -1 167 -32 146 -72 222
-233 235 -497 19 -392 -131 -888 -385 -1270 -178 -268 -411 -456 -730 -586
-56 -23 -101 -44 -98 -46 6 -6 147 52 244 101 232 117 452 310 591 521 83 126
202 363 257 510 153 417 175 864 54 1112 -37 76 -120 154 -187 177 -55 20
-162 28 -213 17z"/>
<path d="M6100 8524 c-320 -106 -754 -414 -1031 -730 -313 -357 -513 -732
-574 -1078 -25 -140 -17 -353 19 -488 73 -274 244 -547 516 -819 165 -165 253
-239 413 -346 248 -166 486 -253 697 -253 331 0 513 185 512 520 -1 122 -24
224 -73 321 -140 279 -385 438 -724 469 -117 11 -312 -1 -344 -21 -12 -7 -10
-8 9 -5 78 15 113 17 229 17 193 0 313 -26 466 -102 183 -90 314 -240 389
-442 28 -77 30 -91 30 -232 1 -132 -2 -158 -22 -217 -46 -132 -137 -222 -272
-270 -94 -32 -298 -32 -419 0 -476 130 -1054 631 -1299 1127 -102 205 -138
375 -129 600 12 324 175 698 467 1074 300 387 769 740 1150 865 58 19 96 35
85 35 -11 0 -54 -11 -95 -25z"/>
<path d="M3152 8403 c-16 -6 -42 -56 -42 -82 0 -59 52 -102 140 -116 56 -9
132 -46 187 -91 125 -102 274 -376 332 -610 35 -143 37 -129 -22 -143 -99 -25
-206 -89 -292 -176 -130 -130 -179 -257 -195 -510 -5 -77 -15 -161 -23 -187
-8 -25 -45 -101 -82 -169 -82 -146 -93 -201 -52 -243 25 -25 111 -56 156 -56
l26 0 1 -133 c0 -150 15 -221 68 -332 58 -122 134 -189 248 -222 33 -9 131
-17 263 -22 147 -6 222 -13 251 -24 171 -64 303 -173 569 -472 220 -247 297
-315 358 -315 14 0 30 6 36 14 36 43 16 221 -45 397 -51 148 -120 275 -235
429 -255 346 -355 530 -424 785 -41 149 -55 274 -64 543 -6 178 -14 280 -26
332 -47 208 -169 338 -349 371 -36 7 -66 17 -66 23 -1 44 -32 236 -49 304 -58
226 -143 391 -270 526 -115 121 -231 186 -331 185 -30 0 -61 -3 -68 -6z"/>
<path d="M2851 8022 c-26 -25 -31 -38 -31 -77 0 -38 5 -52 29 -76 29 -28 32
-29 129 -29 71 0 118 -6 164 -20 122 -38 282 -154 359 -262 75 -104 76 -104
96 -92 29 18 27 40 -11 121 -101 213 -257 349 -491 430 -38 13 -102 27 -142
30 -70 6 -72 5 -102 -25z"/>
<path d="M2823 3935 c-62 -19 -129 -61 -157 -98 -98 -129 -63 -335 70 -413 25
-15 103 -47 173 -70 96 -33 132 -51 154 -74 49 -54 26 -126 -50 -151 -74 -24
-222 12 -274 67 -12 13 -30 24 -40 24 -21 0 -97 -85 -105 -118 -8 -31 30 -71
107 -112 107 -57 217 -77 326 -60 85 14 139 38 191 85 61 54 84 111 85 203 1
68 -2 84 -28 131 -42 76 -119 131 -242 172 -164 53 -203 80 -203 136 0 47 16
72 55 89 69 29 142 13 247 -53 26 -17 28 -17 53 7 54 50 87 99 80 119 -10 31
-100 91 -166 112 -72 22 -212 25 -276 4z"/>
<path d="M6313 3931 c-185 -53 -343 -235 -361 -418 -25 -243 83 -443 292 -542
279 -133 618 9 716 299 31 93 30 233 -3 327 -59 169 -190 295 -352 338 -78 20
-214 18 -292 -4z m253 -198 c69 -23 155 -110 179 -182 22 -66 22 -165 0 -231
-19 -58 -89 -140 -139 -164 -68 -32 -136 -40 -204 -22 -101 26 -160 73 -206
164 -41 80 -38 209 5 295 65 126 225 188 365 140z"/>
<path d="M863 3929 c-10 -10 -13 -123 -13 -496 l0 -482 22 -12 c32 -17 386 -6
462 15 169 47 298 175 342 340 18 68 18 208 -1 279 -42 163 -159 288 -318 340
-52 17 -95 21 -272 24 -163 4 -213 2 -222 -8z m438 -212 c49 -20 116 -82 139
-127 10 -20 23 -64 30 -98 20 -113 -14 -219 -91 -285 -53 -46 -113 -66 -221
-74 l-88 -6 0 308 0 308 98 -5 c54 -3 113 -12 133 -21z"/>
<path d="M1684 3925 c-4 -9 64 -145 160 -323 l166 -309 0 -169 c0 -119 4 -174
12 -182 16 -16 170 -16 186 0 8 8 12 63 12 183 l0 171 96 175 c174 318 236
439 230 455 -5 12 -25 14 -113 12 l-108 -3 -100 -197 c-55 -109 -103 -200
-106 -203 -3 -2 -49 82 -103 188 -54 105 -103 198 -109 205 -15 19 -216 17
-223 -3z"/>
<path d="M3472 3928 c-17 -17 -17 -969 0 -986 19 -19 581 -17 597 2 8 9 11 46
9 103 l-3 88 -197 3 -198 2 0 388 c0 288 -3 391 -12 400 -16 16 -180 16 -196
0z"/>
<path d="M4232 3928 c-17 -17 -17 -969 0 -986 19 -19 611 -17 627 2 8 9 11 45
9 98 l-3 83 -212 3 -213 2 0 100 0 100 180 0 c208 0 200 -4 200 104 0 97 2 96
-206 96 l-174 0 0 105 0 105 213 2 212 3 3 83 c2 53 -1 89 -9 98 -16 19 -608
21 -627 2z"/>
<path d="M5016 3925 c-3 -8 16 -46 43 -87 189 -284 251 -380 251 -390 0 -6
-71 -116 -157 -245 -127 -190 -155 -238 -146 -251 8 -14 29 -18 102 -20 53 -2
100 2 112 8 11 6 63 77 116 158 52 81 99 151 103 156 5 4 57 -64 116 -153 68
-102 115 -163 128 -167 12 -3 61 -4 110 -2 68 2 91 7 99 19 8 13 -24 65 -155
255 l-165 239 155 232 c98 147 152 238 149 247 -5 13 -26 16 -111 16 l-105 0
-93 -136 c-51 -75 -100 -145 -109 -156 -15 -20 -19 -14 -117 136 l-102 156
-109 0 c-87 0 -110 -3 -115 -15z"/>
<path d="M7140 3921 c-6 -13 -10 -185 -10 -490 0 -414 2 -471 16 -485 11 -12
36 -16 94 -16 114 0 112 -5 108 206 l-3 174 182 0 c216 0 213 -1 213 96 0 109
9 104 -208 104 l-187 0 2 112 2 113 218 5 218 5 3 83 c2 53 -1 89 -9 98 -9 11
-67 14 -320 14 -295 0 -309 -1 -319 -19z"/>
<path d="M7951 3921 c-7 -13 -11 -179 -11 -490 0 -414 2 -471 16 -485 13 -14
54 -16 298 -16 231 0 286 3 295 14 8 9 11 46 9 103 l-3 88 -197 3 -198 2 -2
398 -3 397 -97 3 c-88 2 -98 1 -107 -17z"/>
<path d="M8506 3923 c-5 -11 50 -111 169 -308 l175 -291 0 -181 c0 -152 3
-184 16 -197 19 -20 173 -23 192 -4 8 8 12 66 12 195 l0 182 88 153 c49 84
125 217 170 294 53 90 80 147 76 158 -5 13 -23 16 -106 16 -91 0 -101 -2 -121
-24 -20 -22 -198 -345 -205 -373 -6 -22 -18 -14 -36 25 -31 66 -188 343 -203
358 -11 10 -41 14 -118 14 -87 0 -104 -3 -109 -17z"/>
<path d="M2719 2526 c-2 -2 -3 -95 -1 -205 l3 -202 131 3 132 3 0 30 0 30 -97
3 -97 3 0 49 0 50 85 0 85 0 0 35 0 35 -85 0 -85 0 0 50 0 50 96 0 95 0 -3 33
-3 32 -126 3 c-69 1 -127 1 -130 -2z"/>
<path d="M3120 2325 l0 -205 98 0 c108 0 157 16 204 66 35 38 48 74 48 137 -1
95 -56 174 -138 197 -20 5 -76 10 -124 10 l-88 0 0 -205z m195 121 c64 -27 95
-121 62 -186 -21 -41 -74 -70 -128 -70 l-49 0 0 135 0 135 40 0 c22 0 56 -6
75 -14z"/>
<path d="M3584 2515 c-4 -9 -4 -75 -2 -148 4 -140 13 -171 60 -213 33 -31 91
-47 139 -39 44 8 105 54 119 91 5 13 10 89 11 171 l1 148 -35 3 -35 3 -4 -146
c-3 -147 -3 -147 -31 -171 -30 -26 -66 -31 -99 -13 -36 19 -48 69 -48 204 l0
125 -35 0 c-23 0 -38 -6 -41 -15z"/>
<path d="M4145 2514 c-43 -22 -64 -44 -88 -89 -29 -55 -29 -145 1 -202 59
-114 213 -145 305 -63 l32 29 -22 22 -23 23 -39 -22 c-97 -55 -193 1 -193 113
0 111 98 170 185 111 l35 -24 26 27 c25 26 26 28 9 43 -55 48 -167 64 -228 32z"/>
<path d="M4626 2521 c-6 -9 -156 -393 -156 -398 0 -2 18 -3 40 -3 39 0 42 2
60 45 l19 45 80 0 79 0 14 -42 c14 -41 17 -43 58 -46 38 -3 42 -1 36 15 -3 10
-39 102 -78 206 l-72 187 -37 0 c-21 0 -40 -4 -43 -9z m68 -169 c14 -37 26
-71 26 -75 0 -4 -25 -7 -55 -7 -30 0 -55 2 -55 4 0 8 52 146 55 146 2 0 15
-30 29 -68z"/>
<path d="M4920 2495 l0 -35 60 0 60 0 0 -170 0 -170 35 0 35 0 0 170 0 170 60
0 60 0 0 35 0 35 -155 0 -155 0 0 -35z"/>
<path d="M5350 2325 l0 -205 40 0 40 0 0 205 0 205 -40 0 -40 0 0 -205z"/>
<path d="M5685 2514 c-81 -42 -120 -115 -113 -213 8 -112 87 -184 203 -185
166 -1 263 161 186 312 -23 46 -46 67 -94 87 -47 20 -143 19 -182 -1z m161
-79 c67 -43 77 -140 21 -201 -104 -113 -269 16 -199 156 32 65 116 86 178 45z"/>
<path d="M6120 2325 l0 -205 40 0 39 0 3 136 3 137 115 -136 c110 -130 117
-136 153 -137 l37 0 -2 203 -3 202 -37 3 -37 3 -3 -136 -3 -137 -115 136
c-110 129 -117 136 -152 136 l-38 0 0 -205z"/>
<path d="M6703 2343 c-40 -104 -75 -196 -79 -205 -5 -15 0 -18 35 -18 40 0 43
2 61 45 l19 45 80 0 79 0 14 -42 c14 -41 17 -43 58 -46 51 -4 56 -28 -42 220
l-73 188 -40 0 -40 0 -72 -187z m141 13 c14 -37 26 -72 26 -77 0 -5 -25 -9
-56 -9 -49 0 -55 2 -49 18 3 9 16 45 28 79 12 34 22 61 23 60 1 -1 14 -33 28
-71z"/>
<path d="M7140 2528 c0 -2 -1 -93 -1 -203 l-1 -200 131 -3 131 -3 0 36 0 35
-95 0 -95 0 0 170 0 170 -35 0 c-19 0 -35 -1 -35 -2z"/>
<path d="M1530 1858 c-156 -44 -191 -265 -59 -371 70 -55 192 -45 251 20 17
19 17 21 -6 42 l-25 23 -30 -21 c-34 -25 -95 -30 -130 -12 -34 19 -61 71 -61
119 0 107 92 164 178 112 30 -19 34 -19 57 -4 14 9 25 20 25 24 0 16 -61 59
-98 70 -43 12 -55 12 -102 -2z"/>
<path d="M1965 1861 c-45 -11 -69 -26 -103 -65 -109 -124 -33 -328 127 -344
87 -8 190 46 165 85 -20 32 -41 38 -62 20 -93 -84 -233 23 -192 147 25 77 115
111 173 66 32 -26 39 -25 66 4 l22 24 -33 25 c-30 23 -98 48 -123 46 -5 -1
-23 -4 -40 -8z"/>
<path d="M2734 1860 c-45 -14 -76 -52 -81 -103 -5 -38 -2 -48 23 -75 17 -19
58 -43 99 -60 53 -20 71 -33 73 -48 8 -53 -62 -70 -130 -32 l-40 23 -19 -24
c-10 -13 -19 -27 -19 -31 0 -17 71 -51 118 -57 95 -11 160 31 169 109 7 61
-24 96 -111 127 -36 12 -70 29 -76 36 -17 21 -8 47 21 64 23 13 30 12 74 -9
l48 -23 18 24 c23 30 20 39 -18 61 -37 22 -108 30 -149 18z"/>
<path d="M3113 1859 c-101 -29 -112 -171 -16 -212 21 -9 59 -25 86 -36 51 -22
61 -45 29 -74 -25 -23 -69 -21 -117 4 l-39 21 -18 -22 c-25 -31 -20 -41 32
-67 76 -39 179 -24 215 30 50 77 18 148 -85 185 -79 28 -92 38 -88 71 5 40 45
49 99 23 l44 -22 25 26 25 25 -25 19 c-24 18 -95 41 -122 39 -7 0 -27 -5 -45
-10z"/>
<path d="M7940 1859 c-50 -15 -97 -54 -121 -101 -17 -33 -20 -55 -17 -114 3
-63 7 -78 34 -111 69 -87 190 -108 277 -46 122 86 109 290 -22 358 -38 19
-110 26 -151 14z m132 -95 c25 -23 48 -74 48 -110 0 -39 -27 -88 -59 -107 -36
-21 -99 -22 -129 -1 -72 50 -68 187 6 229 35 20 106 14 134 -11z"/>
<path d="M1023 1667 c-40 -106 -73 -196 -73 -200 0 -4 17 -7 38 -7 36 0 40 3
55 40 l15 40 81 0 80 0 12 -40 c12 -39 14 -40 55 -40 l44 0 -19 48 c-10 26
-44 116 -76 200 l-58 152 -41 0 -41 0 -72 -193z m142 23 c10 -30 20 -61 23
-67 3 -10 -11 -13 -51 -13 l-55 0 26 75 c15 40 30 71 33 67 4 -4 15 -32 24
-62z"/>
<path d="M2270 1660 l0 -200 130 0 130 0 0 30 0 29 -92 3 -93 3 -3 47 -3 47
83 3 83 3 0 30 0 30 -83 3 -82 3 1 49 2 50 94 0 94 0 -3 33 -3 32 -127 3 -128
3 0 -201z"/>
<path d="M3430 1660 l0 -200 35 0 35 0 0 200 0 200 -35 0 -35 0 0 -200z"/>
<path d="M3650 1660 l0 -200 105 0 c149 0 185 21 185 110 0 33 -6 48 -31 72
l-30 31 20 21 c23 25 28 84 10 118 -18 33 -71 48 -169 48 l-90 0 0 -200z m184
114 c38 -37 -2 -87 -66 -82 -41 3 -41 4 -43 43 0 22 1 43 3 48 6 14 90 7 106
-9z m7 -154 c12 -7 19 -21 19 -40 0 -40 -35 -62 -91 -58 l-42 3 1 48 c0 26 1
49 1 52 2 9 92 5 112 -5z"/>
<path d="M4070 1661 l0 -201 35 0 35 0 0 190 c0 105 1 193 3 198 1 4 -15 8
-35 10 l-38 3 0 -200z"/>
<path d="M4289 1856 c-2 -2 -3 -93 -1 -200 l3 -197 126 3 127 3 0 29 0 29 -92
-2 -92 -2 0 170 0 171 -33 0 c-19 0 -36 -2 -38 -4z"/>
<path d="M4660 1661 l0 -201 40 0 40 0 -2 198 -3 197 -37 3 -38 3 0 -200z"/>
<path d="M4840 1825 l0 -35 60 0 60 0 0 -165 0 -165 35 0 35 0 0 165 0 165 60
0 60 0 0 35 0 35 -155 0 -155 0 0 -35z"/>
<path d="M5230 1856 c0 -3 29 -58 65 -124 64 -117 65 -120 65 -195 l0 -77 40
0 40 0 0 71 c0 67 3 75 65 193 36 67 65 126 65 129 0 4 -17 7 -38 7 -37 0 -38
-1 -83 -86 l-46 -86 -47 86 c-47 86 -47 86 -87 86 -21 0 -39 -2 -39 -4z"/>
<path d="M5897 1853 c-4 -3 -7 -93 -7 -200 l0 -193 40 0 40 0 0 65 0 65 50 0
c28 0 66 6 85 14 93 39 100 182 12 236 -26 16 -50 20 -123 20 -50 0 -94 -3
-97 -7z m183 -83 c24 -24 26 -57 4 -88 -12 -18 -25 -22 -65 -22 l-49 0 0 65 0
65 45 0 c32 0 51 -6 65 -20z"/>
<path d="M6290 1661 l0 -201 131 0 130 0 -3 32 -3 31 -87 -2 -88 -2 -2 168 -3
168 -37 3 -38 3 0 -200z"/>
<path d="M6715 1708 c-32 -84 -66 -174 -76 -200 l-19 -48 44 0 c41 0 43 2 56
40 l13 40 82 0 82 0 12 -40 c11 -39 13 -40 55 -40 l43 0 -76 200 -76 200 -41
0 -41 0 -58 -152z m123 -5 c11 -32 23 -66 27 -75 6 -16 0 -18 -50 -18 -42 0
-56 3 -52 13 2 6 14 40 27 75 12 34 24 62 25 62 2 0 12 -26 23 -57z"/>
<path d="M7030 1825 l0 -35 60 0 60 0 0 -165 0 -165 35 0 35 0 0 165 0 165 60
0 60 0 0 35 0 35 -155 0 -155 0 0 -35z"/>
<path d="M7450 1660 l0 -200 40 0 40 0 0 75 0 75 75 0 75 0 0 35 0 35 -75 0
-75 0 0 55 0 55 90 0 90 0 0 35 0 35 -130 0 -130 0 0 -200z"/>
<path d="M8320 1660 l0 -200 40 0 40 0 0 73 c0 66 2 73 20 73 13 0 37 -24 72
-73 50 -72 52 -73 95 -73 23 0 43 2 43 5 0 3 -24 38 -54 77 l-54 71 31 22 c55
37 73 105 42 164 -23 45 -69 61 -179 61 l-96 0 0 -200z m192 113 c25 -23 23
-68 -4 -87 -12 -9 -42 -16 -65 -16 l-43 0 0 60 0 60 47 0 c29 0 53 -6 65 -17z"/>
<path d="M8746 1848 c-3 -7 -7 -97 -11 -200 l-6 -188 41 0 40 0 0 69 c0 110
11 197 23 175 5 -11 27 -50 50 -87 53 -90 66 -88 133 20 l51 82 7 -76 c3 -42
6 -100 6 -130 l0 -53 40 0 40 0 -5 148 c-3 81 -8 171 -11 200 -5 51 -6 52 -38
52 -31 0 -37 -7 -87 -86 -30 -47 -59 -92 -64 -100 -8 -12 -24 6 -75 86 -61 93
-67 100 -98 100 -18 0 -34 -6 -36 -12z"/>
</g>
</svg>
